G04 #@! TF.FileFunction,Profile,NP*
%FSLAX46Y46*%
G04 Gerber Fmt 4.6, Leading zero omitted, Abs format (unit mm)*
G04 Created by KiCad (PCBNEW 4.0.1-stable) date 2017/04/08 12:51:49*
%MOMM*%
G01*
G04 APERTURE LIST*
%ADD10C,0.200000*%
%ADD11C,0.100000*%
G04 APERTURE END LIST*
D10*
D11*
X125500000Y-197000000D02*
X124500000Y-197000000D01*
X124500000Y-195000000D02*
X125500000Y-195000000D01*
X117500000Y-197000000D02*
X116500000Y-197000000D01*
X116500000Y-195000000D02*
X117500000Y-195000000D01*
X147500000Y-44000000D02*
X148500000Y-44000000D01*
X147500000Y-45000000D02*
X148500000Y-45000000D01*
X140500000Y-45000000D02*
X139500000Y-45000000D01*
X139500000Y-43000000D02*
X140500000Y-43000000D01*
X102500000Y-45000000D02*
X101500000Y-45000000D01*
X101500000Y-43000000D02*
X102500000Y-43000000D01*
X94500000Y-44000000D02*
X93500000Y-44000000D01*
X93500000Y-45000000D02*
X94500000Y-45000000D01*
X136000000Y-195000000D02*
X152000000Y-195000000D01*
X152000000Y-197000000D02*
X136000000Y-197000000D01*
X152000000Y-197000000D02*
G75*
G03X153000000Y-196000000I0J1000000D01*
G01*
X153000000Y-196000000D02*
G75*
G03X152000000Y-195000000I-1000000J0D01*
G01*
X135000000Y-196000000D02*
G75*
G03X136000000Y-197000000I1000000J0D01*
G01*
X136000000Y-195000000D02*
G75*
G03X135000000Y-196000000I0J-1000000D01*
G01*
X90000000Y-195000000D02*
X106000000Y-195000000D01*
X106000000Y-197000000D02*
X90000000Y-197000000D01*
X106000000Y-197000000D02*
G75*
G03X107000000Y-196000000I0J1000000D01*
G01*
X107000000Y-196000000D02*
G75*
G03X106000000Y-195000000I-1000000J0D01*
G01*
X89000000Y-196000000D02*
G75*
G03X90000000Y-197000000I1000000J0D01*
G01*
X90000000Y-195000000D02*
G75*
G03X89000000Y-196000000I0J-1000000D01*
G01*
X129000000Y-45000000D02*
X113000000Y-45000000D01*
X113000000Y-43000000D02*
X129000000Y-43000000D01*
X129000000Y-45000000D02*
G75*
G03X130000000Y-44000000I0J1000000D01*
G01*
X130000000Y-44000000D02*
G75*
G03X129000000Y-43000000I-1000000J0D01*
G01*
X112000000Y-44000000D02*
G75*
G03X113000000Y-45000000I1000000J0D01*
G01*
X113000000Y-43000000D02*
G75*
G03X112000000Y-44000000I0J-1000000D01*
G01*
X132500000Y-45000000D02*
X136500000Y-45000000D01*
X132500000Y-43000000D02*
X136500000Y-43000000D01*
X109500000Y-45000000D02*
X105500000Y-45000000D01*
X105500000Y-43000000D02*
X109500000Y-43000000D01*
X155500000Y-195000000D02*
X159500000Y-195000000D01*
X155500000Y-197000000D02*
X159500000Y-197000000D01*
X128500000Y-195000000D02*
X132500000Y-195000000D01*
X125500000Y-197000000D02*
X129500000Y-197000000D01*
X109500000Y-195000000D02*
X113500000Y-195000000D01*
X109500000Y-197000000D02*
X113500000Y-197000000D01*
X82500000Y-197000000D02*
X86500000Y-197000000D01*
X82500000Y-195000000D02*
X86500000Y-195000000D01*
X162500000Y-183500000D02*
X162500000Y-194000000D01*
X160500000Y-183500000D02*
X160500000Y-194000000D01*
X162500000Y-180000000D02*
X162500000Y-170500000D01*
X160500000Y-170500000D02*
X160500000Y-180000000D01*
X81500000Y-183500000D02*
X81500000Y-194000000D01*
X79500000Y-183500000D02*
X79500000Y-194000000D01*
X81500000Y-180000000D02*
X81500000Y-170500000D01*
X79500000Y-170500000D02*
X79500000Y-180000000D01*
X170500000Y-35000000D02*
X71500000Y-35000000D01*
X170500000Y-205000000D02*
X170500000Y-35000000D01*
X82000000Y-205000000D02*
X170500000Y-205000000D01*
X81500000Y-205000000D02*
X82000000Y-205000000D01*
X71500000Y-205000000D02*
X81500000Y-205000000D01*
X71500000Y-195000000D02*
X71500000Y-205000000D01*
X71500000Y-195000000D02*
X71500000Y-35000000D01*
X160500000Y-46000000D02*
X160500000Y-167000000D01*
X151000000Y-45000000D02*
X159500000Y-45000000D01*
X160500000Y-46000000D02*
G75*
G03X159500000Y-45000000I-1000000J0D01*
G01*
X160500000Y-167000000D02*
G75*
G03X161500000Y-168000000I1000000J0D01*
G01*
X162500000Y-169000000D02*
G75*
G03X161500000Y-168000000I-1000000J0D01*
G01*
X162500000Y-170500000D02*
X162500000Y-169000000D01*
X161500000Y-181000000D02*
G75*
G03X162500000Y-180000000I0J1000000D01*
G01*
X160500000Y-180000000D02*
G75*
G03X161500000Y-181000000I1000000J0D01*
G01*
X162500000Y-194000000D02*
X162500000Y-196000000D01*
X161500000Y-197000000D02*
G75*
G03X162500000Y-196000000I0J1000000D01*
G01*
X162500000Y-183500000D02*
G75*
G03X161500000Y-182500000I-1000000J0D01*
G01*
X161500000Y-182500000D02*
G75*
G03X160500000Y-183500000I0J-1000000D01*
G01*
X159500000Y-197000000D02*
X161500000Y-197000000D01*
X81500000Y-46000000D02*
X81500000Y-167000000D01*
X91000000Y-45000000D02*
X82500000Y-45000000D01*
X82500000Y-45000000D02*
G75*
G03X81500000Y-46000000I0J-1000000D01*
G01*
X80500000Y-168000000D02*
G75*
G03X81500000Y-167000000I0J1000000D01*
G01*
X80500000Y-168000000D02*
G75*
G03X79500000Y-169000000I0J-1000000D01*
G01*
X79500000Y-170500000D02*
X79500000Y-169000000D01*
X79500000Y-180000000D02*
G75*
G03X80500000Y-181000000I1000000J0D01*
G01*
X80500000Y-181000000D02*
G75*
G03X81500000Y-180000000I0J1000000D01*
G01*
X80500000Y-197000000D02*
X82500000Y-197000000D01*
X79500000Y-194000000D02*
X79500000Y-196000000D01*
X79500000Y-196000000D02*
G75*
G03X80500000Y-197000000I1000000J0D01*
G01*
X80500000Y-182500000D02*
G75*
G03X79500000Y-183500000I0J-1000000D01*
G01*
X81500000Y-183500000D02*
G75*
G03X80500000Y-182500000I-1000000J0D01*
G01*
X150500000Y-44500000D02*
G75*
G03X151000000Y-45000000I500000J0D01*
G01*
X150500000Y-44500000D02*
G75*
G03X150000000Y-44000000I-500000J0D01*
G01*
X148500000Y-44000000D02*
X150000000Y-44000000D01*
X147500000Y-44000000D02*
G75*
G03X147000000Y-44500000I0J-500000D01*
G01*
X147000000Y-44500000D02*
G75*
G03X147500000Y-45000000I500000J0D01*
G01*
X91000000Y-45000000D02*
G75*
G03X91500000Y-44500000I0J500000D01*
G01*
X92000000Y-44000000D02*
G75*
G03X91500000Y-44500000I0J-500000D01*
G01*
X93500000Y-44000000D02*
X92000000Y-44000000D01*
X95000000Y-44500000D02*
G75*
G03X94500000Y-44000000I-500000J0D01*
G01*
X94500000Y-45000000D02*
G75*
G03X95000000Y-44500000I0J500000D01*
G01*
X139500000Y-43000000D02*
X136500000Y-43000000D01*
X141000000Y-43500000D02*
X141000000Y-44500000D01*
X141000000Y-43500000D02*
G75*
G03X140500000Y-43000000I-500000J0D01*
G01*
X140500000Y-45000000D02*
G75*
G03X141000000Y-44500000I0J500000D01*
G01*
X132500000Y-43000000D02*
G75*
G03X131500000Y-44000000I0J-1000000D01*
G01*
X131500000Y-44000000D02*
G75*
G03X132500000Y-45000000I1000000J0D01*
G01*
X102500000Y-43000000D02*
X105500000Y-43000000D01*
X101000000Y-43500000D02*
X101000000Y-44500000D01*
X101500000Y-43000000D02*
G75*
G03X101000000Y-43500000I0J-500000D01*
G01*
X110500000Y-44000000D02*
G75*
G03X109500000Y-43000000I-1000000J0D01*
G01*
X109500000Y-45000000D02*
G75*
G03X110500000Y-44000000I0J1000000D01*
G01*
X101000000Y-44500000D02*
G75*
G03X101500000Y-45000000I500000J0D01*
G01*
X154500000Y-196000000D02*
G75*
G03X155500000Y-197000000I1000000J0D01*
G01*
X155500000Y-195000000D02*
G75*
G03X154500000Y-196000000I0J-1000000D01*
G01*
X86500000Y-197000000D02*
G75*
G03X87500000Y-196000000I0J1000000D01*
G01*
X87500000Y-196000000D02*
G75*
G03X86500000Y-195000000I-1000000J0D01*
G01*
X129500000Y-197000000D02*
X132500000Y-197000000D01*
X124000000Y-195500000D02*
X124000000Y-196500000D01*
X124000000Y-196500000D02*
G75*
G03X124500000Y-197000000I500000J0D01*
G01*
X132500000Y-197000000D02*
G75*
G03X133500000Y-196000000I0J1000000D01*
G01*
X133500000Y-196000000D02*
G75*
G03X132500000Y-195000000I-1000000J0D01*
G01*
X124500000Y-195000000D02*
G75*
G03X124000000Y-195500000I0J-500000D01*
G01*
X118000000Y-196500000D02*
X118000000Y-195500000D01*
X113500000Y-197000000D02*
X116500000Y-197000000D01*
X117500000Y-197000000D02*
G75*
G03X118000000Y-196500000I0J500000D01*
G01*
X118000000Y-195500000D02*
G75*
G03X117500000Y-195000000I-500000J0D01*
G01*
X108500000Y-196000000D02*
G75*
G03X109500000Y-197000000I1000000J0D01*
G01*
X109500000Y-195000000D02*
G75*
G03X108500000Y-196000000I0J-1000000D01*
G01*
X116000000Y-194500000D02*
X116000000Y-72000000D01*
X126000000Y-72000000D02*
X126000000Y-194500000D01*
X116000000Y-72000000D02*
G75*
G03X115500000Y-71500000I-500000J0D01*
G01*
X126500000Y-71500000D02*
G75*
G03X126000000Y-72000000I0J-500000D01*
G01*
X104500000Y-69500000D02*
X104500000Y-46000000D01*
X137500000Y-69500000D02*
X137500000Y-46000000D01*
X115500000Y-71500000D02*
X105500000Y-70500000D01*
X126500000Y-71500000D02*
X136500000Y-70500000D01*
X116000000Y-194500000D02*
G75*
G03X116500000Y-195000000I500000J0D01*
G01*
X125500000Y-195000000D02*
G75*
G03X126000000Y-194500000I0J500000D01*
G01*
X136500000Y-70500000D02*
G75*
G03X137500000Y-69500000I0J1000000D01*
G01*
X104500000Y-69500000D02*
G75*
G03X105500000Y-70500000I1000000J0D01*
G01*
X137500000Y-46000000D02*
G75*
G03X136500000Y-45000000I-1000000J0D01*
G01*
X105500000Y-45000000D02*
G75*
G03X104500000Y-46000000I0J-1000000D01*
G01*
X103000000Y-45500000D02*
X103000000Y-168000000D01*
X93000000Y-168000000D02*
X93000000Y-45500000D01*
X103000000Y-168000000D02*
G75*
G03X103500000Y-168500000I500000J0D01*
G01*
X92500000Y-168500000D02*
G75*
G03X93000000Y-168000000I0J500000D01*
G01*
X114500000Y-170500000D02*
X114500000Y-194000000D01*
X103500000Y-168500000D02*
X113500000Y-169500000D01*
X92500000Y-168500000D02*
X82500000Y-169500000D01*
X103000000Y-45500000D02*
G75*
G03X102500000Y-45000000I-500000J0D01*
G01*
X93500000Y-45000000D02*
G75*
G03X93000000Y-45500000I0J-500000D01*
G01*
X82500000Y-169500000D02*
G75*
G03X81500000Y-170500000I0J-1000000D01*
G01*
X114500000Y-170500000D02*
G75*
G03X113500000Y-169500000I-1000000J0D01*
G01*
X81500000Y-194000000D02*
G75*
G03X82500000Y-195000000I1000000J0D01*
G01*
X113500000Y-195000000D02*
G75*
G03X114500000Y-194000000I0J1000000D01*
G01*
X149000000Y-45500000D02*
X149000000Y-168000000D01*
X139000000Y-168000000D02*
X139000000Y-45500000D01*
X149000000Y-168000000D02*
G75*
G03X149500000Y-168500000I500000J0D01*
G01*
X138500000Y-168500000D02*
G75*
G03X139000000Y-168000000I0J500000D01*
G01*
X127500000Y-170500000D02*
X127500000Y-194000000D01*
X149500000Y-168500000D02*
X159500000Y-169500000D01*
X138500000Y-168500000D02*
X128500000Y-169500000D01*
X149000000Y-45500000D02*
G75*
G03X148500000Y-45000000I-500000J0D01*
G01*
X139500000Y-45000000D02*
G75*
G03X139000000Y-45500000I0J-500000D01*
G01*
X128500000Y-169500000D02*
G75*
G03X127500000Y-170500000I0J-1000000D01*
G01*
X160500000Y-170500000D02*
G75*
G03X159500000Y-169500000I-1000000J0D01*
G01*
X127500000Y-194000000D02*
G75*
G03X128500000Y-195000000I1000000J0D01*
G01*
X159500000Y-195000000D02*
G75*
G03X160500000Y-194000000I0J1000000D01*
G01*
M02*
