M48
;DRILL file {KiCad 4.0.1-stable} date 2017/04/08 12:51:51
;FORMAT={-:-/ absolute / metric / decimal}
FMAT,2
METRIC,TZ
T1C0.300
T2C0.500
T3C0.635
T4C0.700
T5C0.800
T6C0.850
T7C0.998
T8C1.400
T9C2.000
%
G90
G05
M71
T1
X87.375Y-189.85
X88.25Y-172.5
X88.25Y-173.5
X89.75Y-172.5
X89.75Y-173.5
X90.Y-185.7
X91.25Y-172.5
X91.25Y-173.5
X92.6Y-185.95
X93.05Y-184.5
X93.35Y-174.975
X93.35Y-190.05
X93.525Y-181.125
X94.1Y-160.2
X94.1Y-186.75
X94.25Y-46.7
X94.25Y-50.2
X94.25Y-53.7
X94.25Y-57.2
X94.25Y-60.7
X94.25Y-64.2
X94.25Y-67.7
X94.25Y-71.2
X94.25Y-74.7
X94.25Y-78.2
X94.25Y-81.7
X94.25Y-85.2
X94.25Y-88.7
X94.25Y-92.2
X94.25Y-95.7
X94.25Y-99.2
X94.25Y-102.7
X94.25Y-106.2
X94.25Y-109.7
X94.25Y-113.2
X94.25Y-116.7
X94.25Y-120.2
X94.25Y-123.7
X94.25Y-127.2
X94.25Y-130.7
X94.25Y-134.2
X94.25Y-137.7
X94.25Y-141.2
X94.25Y-144.7
X94.25Y-148.2
X94.25Y-151.7
X94.25Y-155.2
X94.45Y-189.35
X94.5Y-185.25
X94.85Y-191.5
X94.9Y-158.8
X96.875Y-178.05
X96.875Y-178.925
X97.45Y-179.8
X97.85Y-137.7
X98.225Y-178.05
X98.25Y-178.925
X99.425Y-178.05
X99.475Y-178.925
X100.975Y-180.425
X101.45Y-188.15
X101.6Y-178.625
X101.75Y-46.75
X101.75Y-50.25
X101.75Y-53.75
X101.75Y-57.25
X101.75Y-60.75
X101.75Y-64.25
X101.75Y-67.75
X101.75Y-71.25
X101.75Y-74.75
X101.75Y-78.25
X101.75Y-81.75
X101.75Y-85.25
X101.75Y-88.75
X101.75Y-92.25
X101.75Y-95.75
X101.75Y-99.25
X101.75Y-102.75
X101.75Y-106.25
X101.75Y-109.75
X101.75Y-113.25
X101.75Y-116.75
X101.75Y-120.25
X101.75Y-123.75
X101.75Y-127.25
X101.75Y-130.75
X101.75Y-134.25
X101.75Y-137.75
X101.75Y-141.25
X101.75Y-144.75
X101.75Y-148.25
X101.75Y-151.75
X101.75Y-155.25
X101.85Y-185.95
X101.85Y-187.2
X102.475Y-175.5
X103.3Y-180.05
X103.6Y-183.55
X103.65Y-186.6
X103.65Y-187.5
X103.7Y-174.125
X103.7Y-185.2
X105.15Y-181.8
X105.2Y-189.45
X105.45Y-183.65
X105.55Y-51.65
X106.475Y-175.
X107.6Y-57.2
X108.6Y-51.9
X110.4Y-188.1
X111.4Y-182.8
X112.525Y-65.
X113.45Y-188.35
X113.55Y-56.35
X113.8Y-50.55
X113.85Y-58.2
X115.3Y-54.8
X115.3Y-65.875
X115.35Y-52.5
X115.35Y-53.4
X115.4Y-56.45
X115.7Y-59.95
X116.525Y-64.5
X117.15Y-52.8
X117.15Y-54.05
X117.25Y-84.75
X117.25Y-88.25
X117.25Y-91.75
X117.25Y-95.25
X117.25Y-98.75
X117.25Y-102.25
X117.25Y-105.75
X117.25Y-109.25
X117.25Y-112.75
X117.25Y-116.25
X117.25Y-119.75
X117.25Y-123.25
X117.25Y-126.75
X117.25Y-130.25
X117.25Y-133.75
X117.25Y-137.25
X117.25Y-140.75
X117.25Y-144.25
X117.25Y-147.75
X117.25Y-151.25
X117.25Y-154.75
X117.25Y-158.25
X117.25Y-161.75
X117.25Y-165.25
X117.25Y-168.75
X117.25Y-172.25
X117.25Y-175.75
X117.25Y-179.25
X117.25Y-182.75
X117.25Y-186.25
X117.25Y-189.75
X117.25Y-193.25
X117.4Y-61.375
X117.55Y-51.85
X118.025Y-59.575
X119.525Y-61.075
X119.575Y-61.95
X120.75Y-61.075
X120.775Y-61.95
X121.15Y-102.3
X121.55Y-60.2
X122.125Y-61.075
X122.125Y-61.95
X124.1Y-81.2
X124.15Y-48.5
X124.5Y-54.75
X124.55Y-50.65
X124.75Y-84.8
X124.75Y-88.3
X124.75Y-91.8
X124.75Y-95.3
X124.75Y-98.8
X124.75Y-102.3
X124.75Y-105.8
X124.75Y-109.3
X124.75Y-112.8
X124.75Y-116.3
X124.75Y-119.8
X124.75Y-123.3
X124.75Y-126.8
X124.75Y-130.3
X124.75Y-133.8
X124.75Y-137.3
X124.75Y-140.8
X124.75Y-144.3
X124.75Y-147.8
X124.75Y-151.3
X124.75Y-154.8
X124.75Y-158.3
X124.75Y-161.8
X124.75Y-165.3
X124.75Y-168.8
X124.75Y-172.3
X124.75Y-175.8
X124.75Y-179.3
X124.75Y-182.8
X124.75Y-186.3
X124.75Y-189.8
X124.75Y-193.3
X124.9Y-53.25
X124.9Y-79.8
X125.475Y-58.875
X125.65Y-49.95
X125.65Y-65.025
X125.95Y-55.5
X126.4Y-54.05
X127.75Y-66.5
X127.75Y-67.5
X129.Y-54.3
X129.25Y-66.5
X129.25Y-67.5
X130.75Y-66.5
X130.75Y-67.5
X131.625Y-50.15
X133.375Y-189.85
X134.25Y-172.5
X134.25Y-173.5
X135.75Y-172.5
X135.75Y-173.5
X136.Y-185.7
X137.25Y-172.5
X137.25Y-173.5
X138.6Y-185.95
X139.05Y-184.5
X139.35Y-174.975
X139.35Y-190.05
X139.525Y-181.125
X140.1Y-160.2
X140.1Y-186.75
X140.25Y-46.7
X140.25Y-50.2
X140.25Y-53.7
X140.25Y-57.2
X140.25Y-60.7
X140.25Y-64.2
X140.25Y-67.7
X140.25Y-71.2
X140.25Y-74.7
X140.25Y-78.2
X140.25Y-81.7
X140.25Y-85.2
X140.25Y-88.7
X140.25Y-92.2
X140.25Y-95.7
X140.25Y-99.2
X140.25Y-102.7
X140.25Y-106.2
X140.25Y-109.7
X140.25Y-113.2
X140.25Y-116.7
X140.25Y-120.2
X140.25Y-123.7
X140.25Y-127.2
X140.25Y-130.7
X140.25Y-134.2
X140.25Y-137.7
X140.25Y-141.2
X140.25Y-144.7
X140.25Y-148.2
X140.25Y-151.7
X140.25Y-155.2
X140.45Y-189.35
X140.5Y-185.25
X140.85Y-191.5
X140.9Y-158.8
X142.875Y-178.05
X142.875Y-178.925
X143.45Y-179.8
X143.85Y-137.7
X144.225Y-178.05
X144.25Y-178.925
X145.425Y-178.05
X145.475Y-178.925
X146.975Y-180.425
X147.45Y-188.15
X147.6Y-178.625
X147.75Y-46.75
X147.75Y-50.25
X147.75Y-53.75
X147.75Y-57.25
X147.75Y-60.75
X147.75Y-64.25
X147.75Y-67.75
X147.75Y-71.25
X147.75Y-74.75
X147.75Y-78.25
X147.75Y-81.75
X147.75Y-85.25
X147.75Y-88.75
X147.75Y-92.25
X147.75Y-95.75
X147.75Y-99.25
X147.75Y-102.75
X147.75Y-106.25
X147.75Y-109.75
X147.75Y-113.25
X147.75Y-116.75
X147.75Y-120.25
X147.75Y-123.75
X147.75Y-127.25
X147.75Y-130.75
X147.75Y-134.25
X147.75Y-137.75
X147.75Y-141.25
X147.75Y-144.75
X147.75Y-148.25
X147.75Y-151.75
X147.75Y-155.25
X147.85Y-185.95
X147.85Y-187.2
X148.475Y-175.5
X149.3Y-180.05
X149.6Y-183.55
X149.65Y-186.6
X149.65Y-187.5
X149.7Y-174.125
X149.7Y-185.2
X151.15Y-181.8
X151.2Y-189.45
X151.45Y-183.65
X152.475Y-175.
X156.4Y-188.1
X157.4Y-182.8
X159.45Y-188.35
T2
X87.1Y-185.6
X131.9Y-54.4
X133.1Y-185.6
T3
X85.Y-170.1
X86.7Y-181.1
X86.9Y-183.6
X89.3Y-176.5
X89.9Y-178.7
X91.1Y-191.7
X93.75Y-178.
X93.9Y-192.3
X94.5Y-188.4
X98.Y-158.3
X98.Y-183.5
X101.Y-189.05
X102.8Y-173.4
X103.4Y-191.7
X105.9Y-54.6
X106.575Y-177.025
X107.2Y-51.5
X107.2Y-62.9
X108.5Y-55.
X108.6Y-58.7
X110.4Y-181.3
X110.5Y-185.
X111.8Y-177.1
X111.8Y-188.5
X112.425Y-62.975
X113.1Y-185.4
X115.6Y-48.3
X116.2Y-66.6
X118.Y-50.95
X121.Y-56.5
X121.Y-81.7
X124.5Y-51.6
X125.1Y-47.7
X125.25Y-62.
X127.9Y-48.3
X129.1Y-61.3
X129.7Y-63.5
X131.Y-170.1
X132.1Y-56.4
X132.3Y-58.9
X132.7Y-181.1
X132.9Y-183.6
X134.Y-69.9
X135.3Y-176.5
X135.9Y-178.7
X137.1Y-191.7
X139.75Y-178.
X139.9Y-192.3
X140.5Y-188.4
X144.Y-158.3
X144.Y-183.5
X147.Y-189.05
X148.8Y-173.4
X149.4Y-191.7
X152.575Y-177.025
X156.4Y-181.3
X156.5Y-185.
X157.8Y-177.1
X157.8Y-188.5
X159.1Y-185.4
T4
X84.Y-187.4
X84.Y-189.4
X84.Y-191.4
X130.Y-187.4
X130.Y-189.4
X130.Y-191.4
X135.Y-48.6
X135.Y-50.6
X135.Y-52.6
T5
X87.6Y-193.7
X106.3Y-60.3
X106.3Y-66.
X109.4Y-191.
X109.4Y-192.9
X109.6Y-47.1
X109.6Y-49.
X112.7Y-174.
X112.7Y-179.7
X131.4Y-46.3
X133.6Y-193.7
X155.4Y-191.
X155.4Y-192.9
X158.7Y-174.
X158.7Y-179.7
T6
X95.46Y-170.
X98.Y-170.
X100.54Y-170.
X118.46Y-70.
X121.Y-70.
X123.54Y-70.
X141.46Y-170.
X144.Y-170.
X146.54Y-170.
T7
X98.5Y-173.73
X98.5Y-176.27
X120.5Y-63.73
X120.5Y-66.27
X144.5Y-173.73
X144.5Y-176.27
T8
X84.Y-185.05
X84.Y-193.75
X130.Y-185.05
X130.Y-193.75
X135.Y-46.25
X135.Y-54.95
T9
X76.Y-143.
X76.5Y-40.5
X84.Y-182.
X107.Y-47.5
X107.Y-68.5
X112.Y-171.5
X112.Y-192.5
X130.Y-182.
X135.Y-58.
X158.Y-171.5
X158.Y-192.5
X165.5Y-162.5
X166.Y-39.
T0
M30
